HIERARCHY
ROOT hip
{
	OFFSET 0.000000 0.000000 0.000000 
	CHANNELS 6 Xposition Yposition Zposition Xrotation Zrotation Yrotation
	JOINT abdomen
	{
		OFFSET 0.000000 3.402643 0.000000 
		CHANNELS 3 Xrotation Zrotation Yrotation
		JOINT chest
		{
			OFFSET 0.000000 8.438565 -0.680529 
			CHANNELS 3 Xrotation Zrotation Yrotation
			JOINT neck
			{
				OFFSET 0.000000 10.207942 -0.272212 
				CHANNELS 3 Xrotation Zrotation Yrotation
				JOINT head
				{
					OFFSET 0.000000 3.130431 0.000000 
					CHANNELS 3 Xrotation Zrotation Yrotation
					End Site
					{
						OFFSET 0.000000 3.130435 0.000000 
					}
				}
			}
			JOINT lCollar
			{
				OFFSET 3.470700 6.669187 -0.816635 
				CHANNELS 3 Yrotation Zrotation Xrotation
				JOINT lShldr
				{
					OFFSET 3.198488 0.000000 0.000000 
					CHANNELS 3 Zrotation Yrotation Xrotation
					JOINT lForeArm
					{
						OFFSET 10.139888 0.000000 0.000000 
						CHANNELS 3 Yrotation Zrotation Xrotation
						JOINT lHand
						{
							OFFSET 8.370511 0.000000 0.000000 
							CHANNELS 3 Zrotation Yrotation Xrotation
							End Site
							{
								OFFSET 4.083176 0.000000 0.000000 
							}
						}
					}
				}
			}
			JOINT rCollar
			{
				OFFSET -3.470700 6.669187 -0.816635 
				CHANNELS 3 Yrotation Zrotation Xrotation
				JOINT rShldr
				{
					OFFSET -3.198488 0.000000 0.000000 
					CHANNELS 3 Zrotation Yrotation Xrotation
					JOINT rForeArm
					{
						OFFSET -10.139888 0.000000 0.000000 
						CHANNELS 3 Yrotation Zrotation Xrotation
						JOINT rHand
						{
							OFFSET -8.370511 0.000000 0.000000 
							CHANNELS 3 Zrotation Yrotation Xrotation
							End Site
							{
								OFFSET -4.083176 0.000000 0.000000 
							}
						}
					}
				}
			}
		}
	}
	JOINT lThigh
	{
		OFFSET 5.308129 -1.633274 1.361059 
		CHANNELS 3 Xrotation Zrotation Yrotation
		JOINT lShin
		{
			OFFSET -2.041588 -20.007561 0.000000 
			CHANNELS 3 Xrotation Zrotation Yrotation
			JOINT lFoot
			{
				OFFSET 0.000000 -19.190928 -1.224953 
				CHANNELS 3 Xrotation Yrotation Zrotation
				End Site
				{
					OFFSET 0.000000 -2.449906 4.627600 
				}
			}
		}
	}
	JOINT rThigh
	{
		OFFSET -5.308129 -1.633274 1.361059 
		CHANNELS 3 Xrotation Zrotation Yrotation
		JOINT rShin
		{
			OFFSET 2.041588 -20.007561 0.000000 
			CHANNELS 3 Xrotation Zrotation Yrotation
			JOINT rFoot
			{
				OFFSET 0.000000 -19.190928 -1.224953 
				CHANNELS 3 Xrotation Yrotation Zrotation
				End Site
				{
					OFFSET 0.000000 -2.449906 4.627600 
				}
			}
		}
	}
}
MOTION
Frames: 17
Frame Time: 0.016667
36.779362 44.391636 55.807137 66.228073 5.254140 -22.482187 17.554079 1.854376 17.411901 0.000000 0.000000 0.000000 -75.646576 -3.135827 7.667688 0.000000 0.000000 0.000000 0.000000 0.000000 0.000000 34.634491 -64.121979 -25.190985 3.852591 -3.969821 -3.866178 39.329575 7.291779 12.344179 0.000000 0.000000 0.000000 68.003197 109.621788 83.316788 -6.259211 2.627835 -3.963900 -32.356323 1.544976 -0.955425 -87.946945 21.572586 -28.928398 -3.163692 6.365503 17.958519 30.082991 -0.276731 3.649928 -61.792572 17.535725 13.881976 0.533597 -3.336057 -9.886106 5.398726 -0.672725 9.815227 
36.635189 45.140804 56.233273 62.899178 5.979408 -21.784559 16.141825 3.174935 17.576727 0.000000 0.000000 0.000000 -73.986252 -3.888806 11.256597 0.000000 0.000000 0.000000 0.000000 0.000000 0.000000 20.554274 -67.504883 -12.776807 3.786084 -3.953617 -3.700607 38.496044 7.198057 12.152997 0.000000 0.000000 0.000000 55.644512 105.410545 68.134880 -6.343188 2.873282 -3.662718 -30.617023 2.070493 -0.623915 -83.260101 20.175875 -27.354584 -3.661949 6.571728 17.598721 29.646378 0.660455 5.896150 -57.975513 15.066291 14.523941 0.124015 -3.267196 -9.617211 6.246674 0.149342 11.422410 
36.651989 45.773384 56.737106 59.381390 6.485143 -21.235771 14.652987 4.753237 17.415747 0.000000 0.000000 0.000000 -71.497238 -4.961868 14.616267 0.000000 0.000000 0.000000 0.000000 0.000000 0.000000 5.305204 -69.412643 2.508515 3.725754 -3.756711 -3.455955 37.533569 7.178098 11.752754 0.000000 0.000000 0.000000 39.731892 101.903214 50.990276 -6.415661 3.138751 -3.634068 -28.592443 2.487138 -0.599174 -78.396774 18.759760 -25.331762 -4.223520 6.165375 16.961449 29.104912 1.411006 7.501657 -54.061451 12.666114 14.564574 0.194266 -3.189683 -9.167253 7.026215 1.128194 13.078731 
36.668968 46.405163 57.242027 55.865383 7.029089 -20.718979 13.150176 6.336180 17.218260 0.000000 0.000000 0.000000 -69.055923 -6.181244 17.929672 0.000000 0.000000 0.000000 0.000000 0.000000 0.000000 -11.554996 -69.696045 19.419949 3.663206 -3.561016 -3.221036 36.558781 7.147042 11.340447 0.000000 0.000000 0.000000 14.390362 100.019989 24.425537 -6.478076 3.404634 -3.614713 -26.566011 2.904134 -0.546188 -73.632065 17.198629 -23.453384 -4.771694 5.729524 16.379786 28.519674 2.118953 9.144641 -50.178135 10.259447 14.463185 0.260382 -3.100064 -8.737223 7.774914 2.157043 14.717968 
36.708160 46.942631 57.874657 52.164349 7.534916 -20.102371 11.322113 7.841868 16.724243 0.000000 0.000000 0.000000 -64.890472 -8.113623 20.466740 0.000000 0.000000 0.000000 0.000000 0.000000 0.000000 -27.094696 -68.463593 36.036964 3.579793 -3.468943 -3.231094 35.400215 7.194137 10.552847 0.000000 0.000000 0.000000 -12.661691 100.397575 -2.997202 -6.555972 3.429136 -3.779291 -23.921587 2.871069 -0.728547 -68.636246 15.430326 -21.465584 -4.831718 5.279119 15.875030 27.746958 2.748893 9.923365 -46.089695 7.332234 13.152990 0.250385 -2.983265 -7.144044 8.714265 3.211344 16.234863 
36.746254 47.476582 58.506458 48.463142 8.088214 -19.517797 9.467053 9.320212 16.177227 0.000000 0.000000 0.000000 -60.787746 -10.232253 22.863031 0.000000 0.000000 0.000000 0.000000 0.000000 0.000000 -40.002964 -65.822311 50.035061 3.486660 -3.376290 -3.240601 34.240765 7.224710 9.752360 0.000000 0.000000 0.000000 -33.661015 102.722679 -24.361876 -6.633783 3.454113 -3.943803 -21.286936 2.855486 -0.902287 -63.741409 13.487085 -19.646814 -4.900496 4.838941 15.340771 26.950403 3.360839 10.742010 -41.964279 4.498704 11.661557 0.260595 -2.873395 -5.560390 9.616458 4.271792 17.707767 
36.656673 47.605339 59.043888 44.512302 8.410152 -18.802067 7.456445 10.741436 15.235002 0.000000 0.000000 0.000000 -55.335312 -12.709007 24.464500 0.000000 0.000000 0.000000 0.000000 0.000000 0.000000 -50.937977 -62.898918 61.928364 3.408303 -3.196409 -3.250110 33.066761 7.299637 8.768517 0.000000 0.000000 0.000000 -50.946705 105.666496 -41.408775 -6.747444 3.332367 -3.603073 -18.906857 2.829416 -0.690275 -58.965237 11.358309 -17.968525 -4.745866 4.216241 14.670067 26.933523 3.693835 11.539741 -37.791405 1.631025 9.923603 0.525083 -2.902127 -3.873627 11.103521 5.063681 18.659811 
36.566631 47.736301 59.581093 40.557487 8.787933 -18.109106 5.418376 12.119020 14.220160 0.000000 0.000000 0.000000 -49.888184 -15.314616 25.843349 0.000000 0.000000 0.000000 0.000000 0.000000 0.000000 -59.411472 -59.172386 71.358574 3.330006 -3.016500 -3.260160 31.886896 7.348963 7.788492 0.000000 0.000000 0.000000 -62.184700 109.521133 -52.413685 -6.860421 3.208230 -3.252234 -16.536343 2.793458 -0.472771 -54.315865 9.101498 -16.489956 -4.557917 3.602827 14.016459 26.899300 4.015210 12.355986 -33.537724 -1.124140 7.999150 0.787678 -2.903394 -2.216869 12.577976 5.888930 19.612379 
36.421066 48.122601 60.090553 36.695045 9.117629 -17.473179 3.847140 13.100495 13.090768 0.000000 0.000000 0.000000 -44.289822 -17.749712 26.663540 0.000000 0.000000 0.000000 0.000000 0.000000 0.000000 -64.646187 -56.028557 77.542137 3.339496 -2.923635 -3.172031 30.853846 7.205988 6.969666 0.000000 0.000000 0.000000 -68.814148 112.444031 -58.635426 -6.798018 3.227563 -2.718686 -14.868885 2.853837 0.131016 -49.483128 7.334779 -14.794992 -4.912140 3.075858 12.639031 27.263126 3.745415 12.554469 -29.630659 -3.437860 6.652641 1.558038 -2.962796 -1.081719 14.053793 6.463916 19.849190 
36.275761 48.508972 60.599609 32.824944 9.484690 -16.857126 2.255398 14.057590 11.934818 0.000000 0.000000 0.000000 -38.634865 -20.244862 27.236622 0.000000 0.000000 0.000000 0.000000 0.000000 0.000000 -68.882950 -52.644142 82.749893 3.348753 -2.821568 -3.093649 29.815886 7.043309 6.149018 0.000000 0.000000 0.000000 -73.902046 115.554810 -63.303616 -6.746353 3.248698 -2.185474 -13.211500 2.881814 0.737004 -44.742954 5.420190 -13.267348 -5.219636 2.535557 11.265839 27.593515 3.476842 12.746758 -25.657104 -5.653372 5.113001 2.342017 -3.074796 0.081968 15.515538 7.084574 20.082687 
36.158184 48.906448 61.064262 28.430729 9.641790 -16.329615 1.123625 14.762313 11.065250 0.000000 0.000000 0.000000 -32.644028 -22.739828 26.763346 0.000000 0.000000 0.000000 0.000000 0.000000 0.000000 -71.973633 -49.838169 87.072578 3.283823 -2.637358 -3.015071 28.720833 6.727726 5.388832 0.000000 0.000000 0.000000 -77.363914 117.709625 -66.248756 -6.780644 3.176241 -1.573285 -11.894448 2.777036 1.240343 -39.671188 3.750461 -11.339567 -5.308121 1.853187 9.889857 28.635393 3.050089 12.893909 -21.283916 -8.006107 3.401594 3.335565 -3.199893 1.411825 17.559248 7.615604 19.841410 
36.041050 49.302643 61.529148 24.035807 9.825555 -15.832694 -0.011976 15.457898 10.187246 0.000000 0.000000 0.000000 -26.508915 -25.166983 25.990543 0.000000 0.000000 0.000000 0.000000 0.000000 0.000000 -74.583115 -46.911648 90.921463 3.208226 -2.453377 -2.946738 27.632986 6.391502 4.633195 0.000000 0.000000 0.000000 -80.365051 119.925827 -68.722946 -6.813630 3.104580 -0.971364 -10.579563 2.652687 1.748236 -34.659149 1.924619 -9.571566 -5.396480 1.151064 8.546059 29.661268 2.595478 13.016635 -16.818020 -10.210427 1.507828 4.342396 -3.366278 2.719103 19.623251 8.130221 19.578987 
35.973877 49.548962 62.016186 19.817501 9.814128 -15.475019 -0.715129 15.900512 9.569180 0.000000 0.000000 0.000000 -21.040977 -27.153513 24.875334 0.000000 0.000000 0.000000 0.000000 0.000000 0.000000 -76.527061 -44.562866 93.611618 3.304666 -2.282906 -2.955830 26.321743 6.119850 3.451591 0.000000 0.000000 0.000000 97.285103 58.844669 109.651054 -6.915467 3.138616 -0.514631 -9.351435 2.518255 1.820774 -29.591408 0.401394 -8.012300 -5.405687 0.731270 7.320318 30.694279 1.517585 12.674356 -12.563096 -11.938451 -0.345488 5.037579 -3.525516 3.864850 22.234535 8.815516 18.388165 
35.907230 49.793549 62.502399 15.599268 9.830065 -15.128601 -1.429503 16.333128 8.948928 0.000000 0.000000 0.000000 -15.453412 -29.031651 23.538731 0.000000 0.000000 0.000000 0.000000 0.000000 0.000000 -78.235886 -42.155972 96.077980 3.401160 -2.112467 -2.964947 25.006859 5.822857 2.281694 0.000000 0.000000 0.000000 95.093765 57.602421 108.197937 -7.027494 3.172428 -0.068282 -8.122568 2.402683 1.895209 -24.586071 -1.239712 -6.578779 -5.405773 0.302141 6.124574 31.714741 0.390540 12.376891 -8.228221 -13.517573 -2.287074 5.726642 -3.677144 4.949560 24.877501 9.420796 17.148994 
35.901627 49.838337 62.894276 11.904796 9.930111 -15.212173 -1.858978 16.340403 8.776033 0.000000 0.000000 0.000000 -11.438859 -30.383499 22.406931 0.000000 0.000000 0.000000 0.000000 0.000000 0.000000 -78.636192 -40.744068 96.982124 3.420143 -1.839252 -2.798685 23.214151 5.199136 1.084449 0.000000 0.000000 0.000000 93.621452 57.361698 107.779648 -7.041110 3.053443 0.184408 -6.966965 2.556396 1.349118 -20.614288 -2.265593 -5.319998 -5.177391 -0.127360 4.998250 32.835159 -0.260462 11.774430 -4.852356 -14.692930 -3.809499 6.713398 -4.040598 5.761512 27.926489 10.674587 15.266105 
35.895302 49.882160 63.285503 8.210912 10.020176 -15.307088 -2.287140 16.337463 8.612495 0.000000 0.000000 0.000000 -7.346669 -31.665020 21.144220 0.000000 0.000000 0.000000 0.000000 0.000000 0.000000 -78.987778 -39.348339 97.848160 3.427546 -1.566082 -2.642538 21.426508 4.528865 -0.096423 0.000000 0.000000 0.000000 92.169098 57.144619 107.401588 -7.053812 2.934402 0.436566 -5.805788 2.732113 0.801152 -16.667360 -3.378558 -4.135581 -4.925521 -0.546520 3.888512 33.980927 -0.954646 11.184212 -1.416206 -15.779374 -5.387071 7.709537 -4.441101 6.526122 31.030771 11.802347 13.359309 
35.805729 49.814980 63.598999 4.084925 10.286127 -15.468307 -2.030010 15.722861 8.983558 0.000000 0.000000 0.000000 -3.343839 -32.664734 19.837656 0.000000 0.000000 0.000000 0.000000 0.000000 0.000000 -77.733734 -38.634632 98.107704 3.111163 -0.913587 -2.242931 19.141365 3.274081 -1.000782 0.000000 0.000000 0.000000 90.612648 57.488228 107.566521 -6.883691 2.742416 0.581999 -4.393112 3.237262 -0.443665 -12.398549 -4.823061 -3.625676 -4.449918 -0.810170 3.422897 35.416172 -1.685576 10.846315 2.225080 -17.387024 -6.500307 9.282804 -4.774476 7.040310 33.238632 12.466728 10.826184 
